# xmcd
#
# Track frame offsets:
# 150
# 12257
# 23012
# 37430
# 49115
# 62877
# 75140
# 86107
# 98927
# 110555
# 122410
# 134375
# 148200
# 162827
# 174622
# 184182
# 193390
# 205085
# 215990
# 225975
#
# Disc length: 3136 seconds
#
# Revision: 0
# Processed by: cddbd v1.4PL0 Copyright (c) Steve Scherf et al.
# Submitted via: Axialis_AX_CDPlayer 2.6
#
DISCID=220c3e14
DTITLE=Songs Of America - Bronco Buster Mono CD #9015
DYEAR=1900
DGENRE=
TTITLE0=I Love You Deeply
TTITLE1=Let's Pull Together
TTITLE2=I'm A Stranger In My Home
TTITLE3=Honky Tonk Down Town
TTITLE4=The Parting Of The Ways
TTITLE5=Cold Heart Of Steel
TTITLE6=Henhouse Serenade
TTITLE7=The Go 'Fer Song
TTITLE8=I'm Willin' To Try
TTITLE9=You Can't Take The Heart Out Of Me
TTITLE10=Let's Fly Away
TTITLE11=Please Mr. Mailman
TTITLE12=Dream House For Sale
TTITLE13=Moonshot
TTITLE14=Ridin' Down Ole 99
TTITLE15=Short Recess
TTITLE16=Turn On The Bright Lights
TTITLE17=Del Rio
TTITLE18=Hot Time In Nashville
TTITLE19=Jubilo
EXTD=
EXTT0=Recorded October 3, 1956
EXTT1=Recorded October 3, 1955
EXTT2=Recorded September 1953
EXTT3=Recorded February 1955
EXTT4=Recorded February 1955
EXTT5=Recorded September 1953
EXTT6=Recorded September 1953
EXTT7=Recorded April 1953
EXTT8=Recorded October 3, 1955
EXTT9=Recorded ca. 1952
EXTT10=Recorded ca. 1952
EXTT11=Recorded September 1953
EXTT12=Recorded April 1953
EXTT13=Recorded ca. 1958
EXTT14=Recorded 1964 or 1965
EXTT15=Recorded ca. 1958
EXTT16=Recorded 1964 or 1965
EXTT17=Recorded ca. 1959
EXTT18=Recorded ca. 1965
EXTT19=Recorded ca. 1959
PLAYORDER=
